<?xml version="1.0" encoding="utf-8"?><svg width="200" height="134" viewBox="0 0 200 134" xmlns="http://www.w3.org/2000/svg" xmlns:xlink="http://www.w3.org/1999/xlink"><view id="Logo" viewBox="0 0 52 29.56"/><svg width="52" height="29.56" fill="none" viewBox="-75.31 -75.31 391.63 222.63" xmlns="http://www.w3.org/2000/svg"><path d="M85.193 61.246c-.764 0-1.646-.117-2.645-.35l-3.155-.861.86-2.581c1.785.637 3.273.956 4.462.956.638 0 1.169-.15 1.594-.447.425-.297.637-.7.637-1.21s-.138-.893-.414-1.148c-.276-.255-.786-.478-1.53-.669l-1.72-.446c-2.38-.616-3.57-2.019-3.57-4.207 0-1.317.5-2.4 1.498-3.25 1.02-.85 2.348-1.275 3.983-1.275.659 0 1.434.117 2.327.35l3.155.861-.86 2.581c-1.722-.637-3.028-.956-3.92-.956-.595 0-1.095.16-1.498.478-.404.298-.606.69-.606 1.18 0 .51.138.892.415 1.147.276.255.785.478 1.53.669l1.688.446c1.275.34 2.188.86 2.74 1.561.553.68.83 1.562.83 2.646 0 1.296-.49 2.379-1.467 3.25-.977.85-2.422 1.275-4.334 1.275zm13.63 0c-1.594 0-2.72-.393-3.378-1.18-.637-.785-.956-1.986-.956-3.6v-7.617H92.13v-2.804h2.358v-3.729l4.047-.796v4.525h3.505v2.804h-3.505v7.68c0 1.254.51 1.88 1.53 1.88.616 0 1.274-.19 1.975-.573l.638 2.39c-1.169.68-2.454 1.02-3.856 1.02zm9.923 0c-1.445 0-2.592-.446-3.442-1.339a4.461 4.461 0 01-1.275-3.186c0-.914.298-1.647.893-2.2.616-.573 1.572-1.02 2.868-1.338l5.13-1.275v-1.306c0-.616-.191-1.105-.573-1.466-.361-.361-.871-.542-1.53-.542-.744 0-2.422.563-5.035 1.69l-1.115-2.582 3.632-1.338c1.105-.404 1.913-.606 2.422-.606 1.934 0 3.453.51 4.558 1.53 1.126.998 1.689 2.315 1.689 3.951v5.482c0 .403.063 1.009.191 1.816.148.786.34 1.455.573 2.008l-3.473.7c-.425-.467-.871-1.115-1.339-1.943-1.423 1.296-2.815 1.944-4.174 1.944zm1.434-2.836c.828 0 1.742-.478 2.74-1.434v-3.22l-3.186.925c-1.02.297-1.53.86-1.53 1.689 0 .637.18 1.137.542 1.498.361.361.839.542 1.434.542zm15.205 2.836c-1.593 0-2.719-.393-3.378-1.18-.637-.785-.956-1.986-.956-3.6v-7.617h-2.358v-2.804h2.358v-3.729l4.047-.796v4.525h3.506v2.804h-3.506v7.68c0 1.254.51 1.88 1.53 1.88.616 0 1.275-.19 1.976-.573l.637 2.39c-1.168.68-2.454 1.02-3.856 1.02zm45.009-.287h-4.047v-8.7c0-1.275-.191-2.199-.574-2.772-.361-.595-.945-.893-1.752-.893-.808 0-1.679.478-2.614 1.434V60.96h-4.047v-8.7c0-1.275-.18-2.199-.542-2.772-.361-.595-.956-.893-1.784-.893-.786 0-1.657.478-2.613 1.434V60.96h-4.048V50.283c0-.403-.074-.998-.223-1.784-.127-.808-.308-1.488-.541-2.04l3.441-.7c.446.445.903 1.093 1.371 1.943 1.338-1.296 2.73-1.944 4.174-1.944 2.146 0 3.601.754 4.366 2.263.468-.616 1.137-1.148 2.008-1.594.871-.446 1.742-.669 2.613-.669 1.615 0 2.815.467 3.601 1.402.807.935 1.211 2.39 1.211 4.366v9.433zm7.348.287c-1.445 0-2.592-.446-3.442-1.339a4.461 4.461 0 01-1.275-3.186c0-.914.298-1.647.893-2.2.616-.573 1.572-1.02 2.868-1.338l5.131-1.275v-1.306c0-.616-.192-1.105-.574-1.466-.361-.361-.871-.542-1.53-.542-.743 0-2.422.563-5.035 1.69l-1.115-2.582 3.633-1.338c1.104-.404 1.912-.606 2.422-.606 1.933 0 3.452.51 4.557 1.53 1.126.998 1.689 2.315 1.689 3.951v5.482c0 .403.063 1.009.191 1.816.149.786.34 1.455.574 2.008l-3.474.7c-.425-.467-.871-1.115-1.338-1.943-1.424 1.296-2.815 1.944-4.175 1.944zm1.434-2.836c.828 0 1.742-.478 2.741-1.434v-3.22l-3.187.925c-1.02.297-1.53.86-1.53 1.689 0 .637.181 1.137.542 1.498.361.361.839.542 1.434.542zm14.465 2.549h-4.047V50.283c0-.403-.075-.998-.223-1.784-.128-.808-.308-1.488-.542-2.04l3.442-.7c.658.658 1.115 1.55 1.37 2.676.425-.85.988-1.509 1.689-1.976a4.205 4.205 0 012.326-.7c.468 0 .893.073 1.275.222l-.701 3.474h-1.052c-.998 0-1.784.244-2.358.733-.552.467-.945 1.253-1.179 2.358v8.413zm21.045 0h-4.972l-4.939-7.712v7.712h-4.048V39.671l4.048-.796v13.257l5.035-6.087h4.557l-5.991 6.66 6.31 8.254zm7.254.287c-2.401 0-4.217-.712-5.45-2.135-1.211-1.445-1.816-3.336-1.816-5.673s.627-4.196 1.88-5.577c1.254-1.402 2.996-2.103 5.226-2.103 4.313 0 6.47 2.241 6.47 6.724 0 .468-.054.86-.16 1.18h-9.241c0 1.593.286 2.782.86 3.569.595.785 1.413 1.179 2.454 1.179 1.168 0 2.698-.425 4.589-1.275l1.115 2.581-3.378 1.243c-.574.191-1.423.287-2.549.287zm-.383-12.652c-.85 0-1.519.298-2.007.893-.468.594-.701 1.338-.701 2.23h5.194c0-2.082-.829-3.123-2.486-3.123zm14.628 12.652c-1.593 0-2.719-.393-3.378-1.18-.637-.785-.956-1.986-.956-3.6v-7.617h-2.358v-2.804h2.358v-3.729l4.048-.796v4.525h3.505v2.804h-3.505v7.68c0 1.254.509 1.88 1.529 1.88.616 0 1.275-.19 1.976-.573l.637 2.39c-1.168.68-2.453 1.02-3.856 1.02z" fill="#54618E"/><path d="M143.753 60.959h-3.856v-4.908h-8.7l-.86-2.485 9.082-13.002h4.334v12.492h2.039v2.995h-2.039v4.908zm-3.856-7.903V44.77l-5.641 8.286h5.641z" fill="#D653D2"/><mask id="aa" style="mask-type:alpha" maskUnits="userSpaceOnUse" x="0" y="0" width="61" height="32"><ellipse cx="30.208" cy="16.098" rx="30.208" ry="15.303" fill="url(#apaint0_linear_1457_20129)"/></mask><g mask="url(#aa)"><ellipse cx="30.208" cy="16.098" rx="30.208" ry="15.303" fill="url(#apaint1_linear_1457_20129)"/><path d="M39.813 20.345V3.336c0-.26.015-.543.045-.849.06-.306.121-.62.181-.941L12.31 20.345h27.504zm25.67 0v1.194c0 .168-.106.306-.318.413-.181.092-.483.137-.906.137h-20.64v9.32h-3.806v-9.32H9.499c-.453 0-.8-.045-1.042-.137-.242-.107-.408-.245-.498-.413l-.408-1.08L39.768-1.116h3.851v21.462h21.863z" fill="#fff"/></g><defs><linearGradient id="apaint0_linear_1457_20129" x1="69.478" y1="-8.386" x2="52.175" y2="43.099" gradientUnits="userSpaceOnUse"><stop stop-color="#F0A"/><stop offset="1" stop-color="#8912DE"/></linearGradient><linearGradient id="apaint1_linear_1457_20129" x1="69.478" y1="-8.386" x2="52.175" y2="43.099" gradientUnits="userSpaceOnUse"><stop stop-color="#F0A"/><stop offset="1" stop-color="#8912DE"/></linearGradient></defs></svg><view id="arrow" viewBox="104 52 30 29"/><svg width="30" height="29" fill="none" viewBox="-10 -10 30 29" x="104" y="52" xmlns="http://www.w3.org/2000/svg"><path d="M5.923 7.534a1.09 1.09 0 01-1.847 0L.384 1.672A1.09 1.09 0 011.307 0h7.385c.858 0 1.38.946.923 1.672L5.923 7.534z" fill="#331A2F" fill-opacity=".9"/></svg><view id="arrow-2" viewBox="156 44 43 43"/><svg width="43" height="43" fill="none" viewBox="-10 -10 43 43" x="156" y="44" xmlns="http://www.w3.org/2000/svg"><path d="M1.807 15.178c-.585.221-.884.879-.606 1.439a11.5 11.5 0 10.746-11.52c-.348.52-.136 1.21.415 1.506.551.295 1.232.083 1.593-.428a9.235 9.235 0 11-.624 9.633c-.292-.554-.94-.852-1.524-.63z" fill="#fff"/><path d="M1.438 10.6a.9.9 0 100 1.8v-1.8zm15.01 1.536a.9.9 0 000-1.272l-5.727-5.728A.9.9 0 109.45 6.409l5.09 5.091-5.09 5.091a.9.9 0 001.272 1.273l5.728-5.728zm-15.01.264h14.374v-1.8H1.438v1.8z" fill="#fff"/></svg><view id="arrow-button" viewBox="156 87 43 43"/><svg width="43" height="43" fill="none" viewBox="-10 -10 43 43" x="156" y="87" xmlns="http://www.w3.org/2000/svg"><path d="M1.807 15.178c-.585.221-.884.879-.606 1.439a11.5 11.5 0 10.746-11.52c-.348.52-.136 1.21.415 1.506.551.295 1.232.083 1.593-.428a9.235 9.235 0 11-.624 9.633c-.292-.554-.94-.852-1.524-.63z" fill="#fff"/><path d="M1.438 10.6a.9.9 0 100 1.8v-1.8zm15.01 1.536a.9.9 0 000-1.272l-5.727-5.728A.9.9 0 109.45 6.409l5.09 5.091-5.09 5.091a.9.9 0 001.272 1.273l5.728-5.728zm-15.01.264h14.374v-1.8H1.438v1.8z" fill="#fff"/></svg><view id="learning-1" viewBox="0 29.56 52 52"/><svg width="52" height="52" fill="none" viewBox="-37.5 -37.5 195 195" y="29.56" xmlns="http://www.w3.org/2000/svg"><g filter="url(#efilter0_d_1457_20710)"><rect x="25" y="21" width="70" height="70" rx="15" fill="#CF51CE"/></g><g clip-path="url(#eclip0_1457_20710)" fill="#fff"><path d="M70.875 46.55l-4.125 4.125c1.65 2.175 2.25 4.65 1.65 7.35-.525 2.1-1.725 3.825-3.525 5.025-3.525 2.475-8.25 1.95-11.175-1.2-3-3.225-3.15-7.95-.3-11.325 2.55-3.075 7.5-4.575 11.925-1.35 1.35-1.35 2.7-2.7 4.05-4.125-2.4-2.025-5.175-3.225-8.475-3.45v2.625c0 .75-.375 1.2-.975 1.2s-.975-.45-.975-1.2V38.45v-.675c-1.875.075-3.675.45-5.4 1.125-6 2.4-9.825 6.75-11.4 13.05 0 .15-.075.225-.075.375-.15.525-.6.825-1.125.75-.525-.15-.825-.6-.75-1.2.525-2.7 1.575-5.175 3.15-7.35 3.75-5.025 8.625-7.95 14.85-8.55.225 0 .525-.075.825-.075v-2.55c0-.9.3-1.35.975-1.35.6 0 .975.45.975 1.275v6.45c3.75.3 7.05 1.65 9.825 4.05.45-.45.825-.9 1.35-1.425-.975-.675-1.875-1.425-2.925-2.025-1.65-.975-3.375-1.725-5.25-2.1-.15 0-.3-.075-.375-.075a.963.963 0 01-.675-1.2c.15-.525.6-.825 1.2-.675 2.4.45 4.575 1.35 6.6 2.7.975.675 1.875 1.35 3 2.175.075-.3.3-.525.3-.75v-3.075c0-.375.15-.825.45-1.05 1.2-1.275 2.475-2.55 3.75-3.825.375-.375.75-.525 1.2-.3.45.15.6.6.6 1.05v2.925h2.925c.525 0 .9.15 1.125.6.15.525 0 .9-.375 1.2-1.275 1.2-2.475 2.475-3.675 3.675-.3.3-.75.45-1.125.45-.975.075-2.025 0-3 0-.225 0-.525.225-.825.3 1.65 1.875 2.85 3.75 3.75 5.925.9 2.175 1.35 4.35 1.5 6.75h2.625c.75 0 1.2.375 1.2.975s-.45.975-1.2.975h-6.375c-.45 1.65-.675 3.3-1.275 4.8-1.95 5.025-5.55 8.325-10.725 9.9-.15 0-.225.075-.375.075-.6.15-1.05-.15-1.2-.675-.15-.525.15-.975.75-1.2.375-.15.75-.225 1.05-.375 5.7-2.175 8.925-6.375 9.6-12.375V56.9h-2.55c-.75 0-1.2-.375-1.2-.975s.45-.975 1.2-.975h6.45c-.3-4.275-1.8-8.025-4.575-11.175l-1.35 1.35c.075.075.15.225.3.375 1.425 1.725 2.475 3.675 3.075 5.85.3.9.075 1.425-.525 1.65-.6.15-1.05-.225-1.275-1.05-.75-1.95-1.725-3.75-3.075-5.4zM63.9 50.675c-2.25-1.875-6.15-2.025-8.775.675-2.55 2.7-2.55 6.675.075 9.3 2.625 2.625 6.675 2.7 9.3.15 2.7-2.55 2.7-6.45.75-8.85L64.2 53c-.3.225-.225.45-.075.75.525 1.05.75 2.1.45 3.225-.6 2.625-3.3 4.275-5.85 3.6-2.625-.675-4.2-3.45-3.45-6 .825-2.625 3.6-4.2 6.075-3.15 1.05.45 1.65.15 2.175-.6.225 0 .3-.075.375-.15zm-1.35 4.05c-.675.675-1.275 1.35-1.875 1.95-.375.375-.9.375-1.275 0-.375-.375-.45-.825-.15-1.275l.45-.45 1.575-1.575c-1.425-.6-2.85-.15-3.6.975a2.847 2.847 0 00.375 3.6c.975.975 2.4 1.125 3.6.375 1.05-.75 1.5-2.175.9-3.6zM75.9 40.1h2.325c.15 0 .375 0 .45-.075L80.7 38h-1.65c-.675 0-1.05-.375-1.05-1.05v-1.725l-1.95 1.95a.573.573 0 00-.15.375c-.075.9 0 1.65 0 2.55z"/><path d="M39.75 56.975h-2.625c-.75 0-1.2-.375-1.2-.975s.45-.9 1.125-.975h6.45c.3-1.275.45-2.475.825-3.675.3-.975.75-1.95 1.125-2.85.3-.6.825-.825 1.35-.525.525.3.675.825.3 1.425-.9 1.8-1.5 3.675-1.575 5.7h2.4c.9 0 1.35.3 1.425.975 0 .675-.45.975-1.425.975H41.7c.075 1.575.3 3.075.825 4.5 2.25 6.525 6.675 10.65 13.35 12.3.225.075.525.15.75.3.375.3.525.675.3 1.125-.225.45-.6.675-1.125.6-2.325-.525-4.575-1.35-6.6-2.625-5.4-3.75-8.55-8.85-9.3-15.45 0-.225-.075-.45-.075-.675 0 0 0-.075-.075-.15z"/><path d="M60.975 76.175V78.8c0 .75-.375 1.2-.975 1.2s-.975-.45-.975-1.2v-5.85-.6c-.975-.15-1.875-.3-2.775-.525C50.175 70.25 46.2 66.5 44.325 60.5c-.075-.225-.15-.375-.15-.6 0-.525.225-.825.675-.975.45-.15.9 0 1.125.45l.225.675c1.65 5.7 6.975 10.05 12.825 10.275v-2.55c0-.75.375-1.2.9-1.2.6 0 .975.45.975 1.2V74.3c1.2-.225 2.4-.375 3.525-.6 2.025-.45 3.825-1.275 5.55-2.4.15-.075.3-.225.45-.3.45-.15.825-.075 1.125.3.3.375.225.825-.075 1.125-.15.15-.375.3-.6.45-2.925 1.875-6.15 2.925-9.6 3.225 0 0-.15.075-.3.075zM76.35 67.325c-.974 0-1.35-.75-.974-1.575a71.769 71.769 0 001.95-4.2c.225-.6.375-1.275.525-1.875.15-.6.6-.9 1.124-.825.526.15.826.6.75 1.275-.45 2.4-1.35 4.575-2.7 6.6-.225.3-.525.525-.675.6zM51.375 44.225c-.225-.225-.6-.45-.75-.825-.225-.45.075-.825.45-1.125 1.425-.9 3-1.65 4.65-2.025.525-.15.9 0 1.125.45.3.525.075 1.2-.525 1.425-1.575.45-3 1.05-4.35 1.95-.075 0-.225 0-.6.15zM49.65 45.65c0 .525-.45.9-.975.9-.525 0-.9-.45-.9-.975 0-.525.45-.9.975-.9.45 0 .9.45.9.975zM74.7 69.35c0 .525-.45.975-.975.975-.525 0-.975-.375-.975-.9s.375-.975.9-.975c.6 0 1.05.375 1.05.9z"/></g><defs><clipPath id="eclip0_1457_20710"><path fill="#fff" transform="translate(36 32)" d="M0 0h48v48H0z"/></clipPath><filter id="efilter0_d_1457_20710" x="0" y="0" width="120" height="120" filterUnits="userSpaceOnUse" color-interpolation-filters="sRGB"><feFlood flood-opacity="0" result="BackgroundImageFix"/><feColorMatrix in="SourceAlpha" values="0 0 0 0 0 0 0 0 0 0 0 0 0 0 0 0 0 0 127 0" result="hardAlpha"/><feOffset dy="4"/><feGaussianBlur stdDeviation="12.5"/><feComposite in2="hardAlpha" operator="out"/><feColorMatrix values="0 0 0 0 0.917647 0 0 0 0 0.364706 0 0 0 0 0.733333 0 0 0 0.25 0"/><feBlend in2="BackgroundImageFix" result="effect1_dropShadow_1457_20710"/><feBlend in="SourceGraphic" in2="effect1_dropShadow_1457_20710" result="shape"/></filter></defs></svg><view id="learning-2" viewBox="52 0 52 52"/><svg width="52" height="52" fill="none" viewBox="-37.5 -37.5 195 195" x="52" xmlns="http://www.w3.org/2000/svg"><g filter="url(#ffilter0_d_1457_20725)"><rect x="25" y="21" width="70" height="70" rx="15" fill="#CF51CE"/></g><path d="M39.2 72.6h21.6V75a2.4 2.4 0 002.4 2.4h3.2c.7 0 1.362-.313 1.813-.838.012 0 .025 0 .037-.012.588.55 1.35.85 2.15.85H80a2.4 2.4 0 002.4-2.4c0-.412-.113-.825-.325-1.175a2.36 2.36 0 00.8-3.2c.6-.375 1-1 1.1-1.7.1-.7-.125-1.412-.6-1.925.638-.7.8-1.713.412-2.575a2.417 2.417 0 00-2.2-1.425h-2.4V38.2c0-1.763-1.437-3.2-3.2-3.2H39.2a3.206 3.206 0 00-3.2 3.2v31.2c0 1.762 1.438 3.2 3.2 3.2zm27.2 3.2h-3.2a.806.806 0 01-.8-.8v-7.2c0-.438.363-.8.8-.8h3.2c.438 0 .8.362.8.8V75c0 .438-.362.8-.8.8zm16-10.4c0 .438-.363.8-.8.8h-2.4c-.438 0-.8.362-.8.8 0 .438.362.8.8.8h2.4c.438 0 .8.362.8.8 0 .438-.363.8-.8.8h-2.4c-.438 0-.8.362-.8.8 0 .438.362.8.8.8h1.6c.438 0 .8.362.8.8 0 .438-.362.8-.8.8h-1.6c-.438 0-.8.363-.8.8 0 .438.362.8.8.8h.8c.438 0 .8.362.8.8 0 .438-.362.8-.8.8h-9.6c-.888 0-1.6-.712-1.6-1.6v-6.737c1-.625 1.75-1.588 2.125-2.7A20.952 20.952 0 0072 58.137c0-.112.075-.2.175-.237.275-.05.987-.175 1.663 1.15.375.763.562 1.6.55 2.463V63.8c0 .438.362.8.8.8h6.4c.45 0 .812.363.812.8zM76 63v-1.487c.013-1.1-.237-2.2-.725-3.188-.788-1.538-1.988-2.25-3.375-2-.875.162-1.5.925-1.5 1.813 0 2.075-.338 4.15-.988 6.125a3.537 3.537 0 01-1.387 1.8 2.446 2.446 0 00-1.625-.65h-3.2a2.4 2.4 0 00-2.4 2.4v3.2H39.2c-.888 0-1.6-.713-1.6-1.6V43h40v20H76zM39.2 36.6H76c.888 0 1.6.712 1.6 1.6v3.2h-40v-3.2c0-.888.712-1.6 1.6-1.6z" fill="#fff"/><path fill-rule="evenodd" clip-rule="evenodd" d="M40.8 38.999c0 .438-.363.8-.8.8a.806.806 0 01-.8-.8c0-.438.362-.8.8-.8.437 0 .8.363.8.8zM44 38.999c0 .438-.362.8-.8.8a.806.806 0 01-.8-.8c0-.438.363-.8.8-.8.438 0 .8.363.8.8zM47.2 38.999c0 .438-.363.8-.8.8a.806.806 0 01-.8-.8c0-.438.362-.8.8-.8.437 0 .8.363.8.8z" fill="#fff"/><path d="M42.4 59.8h12.8a2.4 2.4 0 002.4-2.4v-9.6a2.4 2.4 0 00-2.4-2.4H42.4a2.4 2.4 0 00-2.4 2.4v9.6a2.4 2.4 0 002.4 2.4zm1.962-1.6l3.7-5.825 1.776 2.225-2.276 3.6h-3.2zm10.838 0h-5.738l4.213-6.625L56 54.488v2.925a.803.803 0 01-.8.788zM41.6 47.8c0-.437.362-.8.8-.8h12.8c.438 0 .8.363.8.8v4.126L54.225 49.7a.81.81 0 00-.663-.3.804.804 0 00-.637.376l-2.162 3.4-2.138-2.675a.81.81 0 00-.663-.3.804.804 0 00-.637.374l-4.85 7.625H42.4a.806.806 0 01-.8-.8v-9.6z" fill="#fff"/><path fill-rule="evenodd" clip-rule="evenodd" d="M44.8 49.4c0 .437-.363.8-.8.8a.806.806 0 01-.8-.8c0-.438.362-.8.8-.8.437 0 .8.362.8.8zM74.4 46.199H60.8c-.438 0-.8.363-.8.8 0 .438.362.8.8.8h13.6c.438 0 .8-.362.8-.8 0-.438-.362-.8-.8-.8zM74.4 49.4H60.8c-.438 0-.8.363-.8.8 0 .438.362.8.8.8h13.6c.438 0 .8-.362.8-.8 0-.437-.362-.8-.8-.8zM74.4 52.6H60.8c-.438 0-.8.362-.8.8 0 .437.362.8.8.8h13.6c.438 0 .8-.363.8-.8 0-.438-.362-.8-.8-.8zM68 55.801h-7.2c-.438 0-.8.362-.8.8 0 .438.362.8.8.8H68c.438 0 .8-.363.8-.8 0-.438-.362-.8-.8-.8zM59.2 63H40.8c-.438 0-.8.362-.8.8 0 .438.362.8.8.8h18.4c.438 0 .8-.362.8-.8 0-.438-.362-.8-.8-.8zM56.8 66.199h-16c-.438 0-.8.362-.8.8 0 .438.362.8.8.8h16c.438 0 .8-.363.8-.8 0-.438-.363-.8-.8-.8z" fill="#fff"/><defs><filter id="ffilter0_d_1457_20725" x="0" y="0" width="120" height="120" filterUnits="userSpaceOnUse" color-interpolation-filters="sRGB"><feFlood flood-opacity="0" result="BackgroundImageFix"/><feColorMatrix in="SourceAlpha" values="0 0 0 0 0 0 0 0 0 0 0 0 0 0 0 0 0 0 127 0" result="hardAlpha"/><feOffset dy="4"/><feGaussianBlur stdDeviation="12.5"/><feComposite in2="hardAlpha" operator="out"/><feColorMatrix values="0 0 0 0 0.917647 0 0 0 0 0.364706 0 0 0 0 0.733333 0 0 0 0.25 0"/><feBlend in2="BackgroundImageFix" result="effect1_dropShadow_1457_20725"/><feBlend in="SourceGraphic" in2="effect1_dropShadow_1457_20725" result="shape"/></filter></defs></svg><view id="learning-3" viewBox="104 0 52 52"/><svg width="52" height="52" fill="none" viewBox="-37.5 -37.5 195 195" x="104" xmlns="http://www.w3.org/2000/svg"><g filter="url(#gfilter0_d_1457_20747)"><rect x="25" y="21" width="70" height="70" rx="15" fill="#CF51CE"/></g><path d="M49.344 79.153c-.87-.386-1.257-.966-1.16-1.933v-1.547H40.74c-1.16 0-1.74-.58-1.74-1.74v-1.45c0-.484.29-.773.677-.773.386 0 .676.29.676.773v1.45c0 .193.097.29.29.29h7.541v-4.447c-1.837-1.16-2.417-1.933-2.707-4.06-1.16 0-2.32-.097-3.383 0-.967.096-1.644 1.16-1.74 2.223v1.354c0 .483-.29.773-.677.773-.387 0-.677-.29-.677-.773v-1.547c.097-1.16.677-2.127 1.644-2.804.096-.096.193-.096.29-.193-.387-1.257-.87-2.417-1.16-3.577-1.547-6.187-.58-11.89 2.996-17.208.194-.29.29-.483.097-.87a2.505 2.505 0 01.483-2.9c.774-.774 1.837-1.064 2.9-.58.194.193.387.097.58-.097 1.16-.773 2.224-1.547 3.384-2.32.483-.29.87-.193 1.064.193.193.387 0 .677-.387.967-1.064.773-2.127 1.45-3.19 2.224-.194.096-.194.29-.097.483.387.967.193 1.933-.483 2.61-.677.773-1.547 1.063-2.61.773-.29-.096-.387 0-.58.194-1.934 2.803-3.094 5.897-3.384 9.377-.387 3.48.193 6.767 1.547 9.958.096.29.29.386.676.386h3.964c.097-.386 0-.58-.194-.773-1.16-.967-1.933-2.127-2.126-3.577 0-.29-.097-.387-.387-.483-1.74-.484-2.32-2.61-1.063-3.964.096-.097.193-.387.193-.58V50.73c0-2.127 1.353-3.673 3.287-4.06.29-.097.677-.097.967-.097h4.35c.967 0 1.933.29 2.707.967.096.097.29.097.386.097.87-.387 1.74-.484 2.707-.484h1.354c.386 0 .677.29.773.677 0 .387-.29.677-.773.677h-2.03a3.286 3.286 0 00-3.287 3.093c-.097 1.45 0 2.9 0 4.35v.194c.386.097.386-.097.483-.387a7.628 7.628 0 011.16-2.9c.387-.483.58-.58 1.16-.387 1.837.58 3.577 1.064 5.51 1.257.484 0 1.064 0 1.547-.096.29-.097.677-.29.87-.484.387-.387.87-.387 1.16.097.484.773.87 1.643.967 2.513 0 .194.097.484.387.387v-.29-2.9c0-.484-.097-.774-.677-.774-.386-.096-.58-.386-.58-.773 0-.773-.29-1.353-.773-1.934a2.742 2.742 0 00-2.127-.966h-.773a.66.66 0 01-.677-.677.66.66 0 01.677-.677c1.063-.096 2.127.097 2.997.58.966-.966 2.126-1.256 3.383-1.16h4.254c1.836 0 3.287 1.16 3.77 2.9 0 .097.097.29.29.387.58.387.87.967.87 1.644v3.287c0 .193.097.483.29.58 1.257 1.353.677 3.383-1.063 3.963-.29.097-.29.194-.387.387-.29 1.45-.967 2.707-2.127 3.673-.193.097-.193.387-.386.58l.096.097h4.061c.386 0 .483-.096.676-.386 1.354-3.19 1.837-6.478 1.547-9.861-.29-3.384-1.45-6.477-3.287-9.28-.193-.29-.387-.388-.677-.29-.966.29-1.837 0-2.513-.774-.677-.774-.87-1.644-.484-2.61-.096 0-.193-.194-.386-.387-2.804-2.224-5.994-3.674-9.57-4.254-.388-.096-.581 0-.774.387-.967 1.74-3.48 1.643-4.447 0-.194-.29-.387-.387-.677-.29l-3.48.87c-.194.097-.58.097-.774 0-.193-.097-.386-.387-.29-.58.097-.193.29-.58.484-.58 1.16-.387 2.223-.58 3.383-.87h.194c.58 0 .87-.194 1.063-.773.483-1.16 1.353-1.644 2.514-1.644 1.063.097 1.933.58 2.32 1.644.193.386.386.483.773.58 3.867.58 7.25 2.03 10.247 4.543.29.194.484.29.87.097.967-.387 2.127-.097 2.804.677.677.773.87 1.933.387 2.9-.097.193-.194.386 0 .676 4.35 6.478 4.93 13.341 2.03 20.592 0 .097-.097.193-.097.29.194.097.29.193.484.387.966.773 1.45 1.74 1.45 2.996v5.898c0 1.16-.58 1.74-1.74 1.74h-7.444v1.547c.096.966-.29 1.546-1.16 1.933-7.444-.097-14.695-.097-22.042-.097zm15.854-11.02c-.29 3.093-2.61 4.737-4.833 4.737-1.16 0-2.127-.29-2.997-1.064-1.257-.967-1.837-2.223-1.934-3.77h-3.093c-1.74 0-2.804 1.063-2.804 2.803v6.38c0 .388.097.58.58.58h20.591c.194 0 .484.098.484-.29v-6.863c0-1.257-1.063-2.417-2.223-2.417-1.354-.193-2.514-.097-3.77-.097zm-.29-13.245c-3.093 1.064-5.8-.096-8.603-.773-.097.096-.194.193-.194.387-.483.676-.676 1.45-.676 2.223 0 1.643-.097 3.287.096 4.834.29 2.513 2.61 4.35 5.124 4.157 2.513-.194 4.543-2.224 4.543-4.737v-4.35c0-.58-.193-1.16-.29-1.74zm-18.85-1.45c-.097.58-.29 1.064-.388 1.547a34.12 34.12 0 000 4.447c.194 2.61 2.514 4.35 5.027 3.963 1.257-.193 2.32-.966 2.997-2.03-.096 0-.193-.096-.193-.096-1.643-.677-2.223-2.224-1.353-3.77 0-.097.096-.097.096-.194v-2.803c-2.127 0-4.06-.484-6.187-1.064zM80.182 74.32v-6.477c0-.967-.773-1.934-1.74-2.03-1.16-.097-2.224 0-3.384 0-.29 2.126-.87 2.996-2.707 4.06v4.447h7.831zM66.939 61.269c0 .096.096.193.096.193.967 1.45 2.9 2.224 4.544 1.837 1.837-.483 3.19-1.934 3.287-3.77a29.82 29.82 0 000-4.157c0-.484-.193-1.064-.193-1.547-2.224 1.063-4.254.386-6.38 0v2.9c0 .29.096.483.192.677.677 1.353.194 2.997-1.256 3.577-.097.193-.194.29-.29.29zm-.87-12.568l.87 2.03c.096.29.193.387.386.58.29.29.58.58.87.967l.387.387c.677.193 1.257.386 1.934.386.966.097 1.836.097 2.803 0 .29 0 .483-.386.677-.58.193-.193.386-.483.58-.483.193 0 .483.193.677.387.29.386.483.773.676 1.257v-2.03c0-.097-.193-.29-.29-.387-.483-.097-.676-.387-.676-.87-.097-1.257-1.064-2.224-2.32-2.224h-4.93c-.678-.097-1.258.194-1.644.58zm-21.462 4.737c.193-.29.387-.58.483-.87.387-.58.58-.677 1.257-.483.967.29 1.934.483 2.9.773.967.194 2.03.387 3.094.194-.097-1.644.097-3.19 1.257-4.35-.484-.387-.967-.58-1.547-.58h-4.834c-1.45 0-2.513.966-2.61 2.416-.097.87 0 1.933 0 2.9zM62.298 66.78c-1.546.387-2.03.484-4.06 0 .29 1.16-.387 1.45-1.353 1.257.096 1.933 1.643 3.48 3.577 3.48 1.933-.097 3.48-1.643 3.383-3.384-.387-.096-.87-.096-1.063-.29-.387-.193-.387-.676-.484-1.063zm-13.63 1.74c.483-.483.966-.87 1.45-1.257.773-.483 1.546-.58 2.513-.58.193 0 .387-.096.387-.193.096-.193.096-.483.193-.87-.87.097-1.45-.097-1.353-1.16a6.456 6.456 0 01-3.577.097c-.097.386-.194.773-.387.966-.193.194-.677.194-.967.29-.096 1.064.677 2.224 1.74 2.707zm20.107-3.963c-.193.966-.193.966-1.256 1.16-.097.87 0 .966.87.966 1.063 0 2.03.29 2.803 1.064.29.193.484.483.774.773 1.16-.483 2.03-1.837 1.837-2.803-1.064-.097-1.16 0-1.257-1.16-1.354.386-2.514.29-3.77 0zM45.187 43.287a1.28 1.28 0 001.257-1.256c0-.677-.58-1.257-1.16-1.257-.677 0-1.257.483-1.257 1.16-.097.773.483 1.353 1.16 1.353zm15.081-6.767a1.28 1.28 0 001.257-1.257c0-.676-.58-1.16-1.257-1.256a1.28 1.28 0 00-1.257 1.257c.097.773.58 1.256 1.257 1.256zm15.178 6.767a1.28 1.28 0 001.257-1.256c0-.677-.484-1.16-1.16-1.257-.677 0-1.257.483-1.257 1.16-.097.773.483 1.353 1.16 1.353zM56.788 66.682c.097-.58-.097-.966-.483-.966-.58-.097-1.16 0-1.837 0 0 .386-.097.676-.097.966h2.417zm9.28-.966h-1.45c-.676 0-.966.29-.773.966h2.417c-.097-.386-.097-.676-.193-.966zm1.354-1.45c0-.87-.87-.967-1.16-1.547l-.773 1.547h1.933zm-12.374 0c-.29-.484-.483-.967-.774-1.45-.29.29-.483.483-.773.676-.29.194-.58.387-.387.774h1.934zm-1.064-4.35v-2.224c-.58.096-.87.483-.87.966 0 .58.29 1.064.87 1.257zm12.568-2.224v2.223c.58-.096.87-.58.87-1.063.097-.58-.29-.967-.87-1.16zm-22.235-1.354c-.483.194-.677.58-.677.967s.194.677.677.87v-1.837zm31.999 1.837c.483-.193.677-.483.677-.967 0-.386-.194-.676-.677-.87v1.837z" fill="#fff"/><defs><filter id="gfilter0_d_1457_20747" x="0" y="0" width="120" height="120" filterUnits="userSpaceOnUse" color-interpolation-filters="sRGB"><feFlood flood-opacity="0" result="BackgroundImageFix"/><feColorMatrix in="SourceAlpha" values="0 0 0 0 0 0 0 0 0 0 0 0 0 0 0 0 0 0 127 0" result="hardAlpha"/><feOffset dy="4"/><feGaussianBlur stdDeviation="12.5"/><feComposite in2="hardAlpha" operator="out"/><feColorMatrix values="0 0 0 0 0.917647 0 0 0 0 0.364706 0 0 0 0 0.733333 0 0 0 0.25 0"/><feBlend in2="BackgroundImageFix" result="effect1_dropShadow_1457_20747"/><feBlend in="SourceGraphic" in2="effect1_dropShadow_1457_20747" result="shape"/></filter></defs></svg><view id="learning-4" viewBox="0 81.56 52 52"/><svg width="52" height="52" fill="none" viewBox="-37.5 -37.5 195 195" y="81.56" xmlns="http://www.w3.org/2000/svg"><g filter="url(#hfilter0_d_1457_20756)"><rect x="25" y="21" width="70" height="70" rx="15" fill="#CF51CE"/></g><path d="M59.463 79.931c-.89-.205-1.712-.479-2.26-1.232-.342-.48-.616-1.096-.89-1.643-.137-.274-.205-.411-.48-.48a20.344 20.344 0 01-5.203-1.78 20.34 20.34 0 01-6.71-5.34c-.206-.275-.412-.275-.685-.206-1.712.616-3.561-.137-4.451-1.712-.89-1.644-.548-3.63.959-4.725.273-.205.342-.41.205-.753-1.233-4.04-1.233-8.148 0-12.188.068-.274.068-.48-.206-.685-1.506-1.096-1.917-3.081-1.027-4.725.89-1.643 2.74-2.328 4.52-1.712.342.137.479 0 .684-.205a20.34 20.34 0 016.71-5.341c1.576-.822 3.288-1.37 5-1.712.41-.068.684-.205.821-.753.274-1.643 1.849-2.739 3.56-2.739 1.712 0 3.219 1.233 3.561 2.876.069.41.274.548.617.616a19.628 19.628 0 017.669 3.287c1.575 1.095 2.944 2.328 4.108 3.766.205.274.41.342.753.205 1.644-.616 3.56.137 4.451 1.644.89 1.643.548 3.629-.89 4.724-.274.206-.343.411-.274.754 1.233 4.04 1.233 8.148 0 12.188-.069.274-.069.48.205.685 1.37 1.027 1.85 2.944 1.164 4.519-.753 1.643-2.533 2.602-4.176 2.123-.754-.206-1.096 0-1.575.547-3.013 3.424-6.848 5.615-11.299 6.574-.41.068-.684.274-.753.753-.41 1.438-1.37 2.26-2.739 2.67-.137 0-.205.069-.342.069-.41-.069-.685-.069-1.027-.069zm.48-34.442c-5.753 0-10.477 4.725-10.477 10.477 0 5.752 4.724 10.476 10.476 10.476 5.752 0 10.477-4.724 10.477-10.476 0-5.752-4.725-10.477-10.477-10.477zm-3.561-8.627c-4.725.89-8.56 3.218-11.572 6.916.821 1.027 1.095 2.122.821 3.355 0 .137.137.274.206.342l2.67 1.438c.41.205.822.48 1.233.685 2.465-3.63 5.82-5.615 10.202-5.615 4.383 0 7.67 2.054 10.134 5.615 1.164-.617 2.26-1.233 3.356-1.85.547-.273.89-.547.753-1.3-.206-1.027.205-1.917.89-2.739-3.013-3.698-6.847-6.026-11.572-6.916-.48 1.438-1.438 2.26-2.876 2.602v3.013H59.12v-3.013c-1.3-.342-2.26-1.164-2.738-2.533zM44.81 68.154c3.08 3.698 6.847 6.026 11.572 6.916.479-1.37 1.438-2.26 2.876-2.602v-3.013h1.506v3.013c1.438.342 2.328 1.232 2.807 2.602 4.725-.959 8.56-3.218 11.572-6.916-.89-1.37-.958-1.78-.821-3.355a.523.523 0 00-.137-.343c-1.301-.753-2.67-1.438-4.04-2.19-2.465 3.628-5.82 5.614-10.203 5.614-4.382 0-7.737-2.054-10.202-5.615-1.37.754-2.67 1.438-3.972 2.192-.068.068-.205.205-.137.342.274 1.3-.068 2.396-.822 3.355zm4.245-7.19c-1.438-3.355-1.438-6.71 0-10.065-1.438-.754-2.807-1.575-4.245-2.328-.96 1.027-2.055 1.438-3.424 1.3-1.233 4.04-1.233 8.012 0 12.052 1.37-.137 2.465.342 3.423 1.301 1.439-.685 2.808-1.438 4.246-2.26zm26.02 2.328c.89-.89 1.917-1.438 3.218-1.369.069 0 .274-.206.342-.274.685-2.191.96-4.382.822-6.71-.068-1.712-.342-3.355-.958-4.999-1.301.137-2.397-.274-3.287-1.164-.069-.068-.274-.068-.411 0-.616.342-1.233.685-1.78.959-.685.41-1.438.753-2.123 1.164 1.438 3.355 1.438 6.71 0 10.065a81.771 81.771 0 004.177 2.328zM59.942 37.957c1.233 0 2.26-1.027 2.26-2.191 0-1.233-.959-2.26-2.191-2.26a2.28 2.28 0 00-2.26 2.26c-.068 1.164.959 2.191 2.191 2.191zm-15.749 8.285a2.28 2.28 0 00-2.26-2.26 2.28 2.28 0 00-2.259 2.26c0 1.233 1.027 2.192 2.26 2.192 1.3 0 2.26-1.027 2.26-2.191zm35.949 0c0-1.232-1.027-2.26-2.191-2.26-1.233 0-2.26.96-2.26 2.192a2.28 2.28 0 002.26 2.26c1.164.068 2.19-.959 2.19-2.191zM44.193 65.69a2.28 2.28 0 00-2.26-2.26 2.28 2.28 0 00-2.259 2.26 2.28 2.28 0 002.26 2.26c1.3 0 2.26-1.028 2.26-2.26zm35.949 0c0-1.232-1.027-2.26-2.191-2.26-1.233 0-2.26.959-2.26 2.192a2.28 2.28 0 002.26 2.26c1.164.068 2.19-.96 2.19-2.192zm-20.2 8.285c-1.232 0-2.26 1.027-2.26 2.191a2.28 2.28 0 002.26 2.26 2.28 2.28 0 002.26-2.26c0-1.232-1.027-2.19-2.26-2.19z" fill="#fff"/><path d="M57.545 55.075c-1.438-1.301-1.643-2.876-1.233-4.588.411-1.78 2.192-2.944 3.904-2.807 1.985.205 3.286 1.712 3.423 3.697.069 1.37-.205 2.602-1.37 3.63.206.136.412.342.617.479 1.096.684 2.26 1.37 3.355 1.985.274.137.411.343.343.685v1.986c.068.89-.411 1.506-1.165 1.78-.753.274-1.574.48-2.328.548-2.465.205-4.998.274-7.463-.137-.411-.069-.822-.206-1.233-.342-.821-.343-1.3-.959-1.232-1.85v-2.053c0-.274.068-.411.274-.548 1.164-.685 2.26-1.37 3.423-2.054.274-.069.48-.206.685-.411zm1.986 6.162c1.37-.068 2.328-.068 3.287-.137a18.763 18.763 0 001.917-.342c.342-.068.41-.274.41-.616.206-1.096-.205-1.849-1.3-2.26-.137-.068-.274-.137-.343-.205-.821-.548-1.643-1.164-2.465-1.712-.068-.069-.274-.069-.41-.069H59.05c-.137 0-.342 0-.41.069-.89.959-2.055 1.506-3.15 2.123-.685.41-1.027.821-.89 1.643.068.959.068.959.958 1.233h.137c1.507.068 2.876.205 3.835.273zm-1.849-9.449v.616c.069 1.164 1.027 1.986 2.123 2.054 1.095.069 2.122-.684 2.26-1.78.068-.616.068-1.232-.07-1.78-.341-1.37-1.985-2.054-3.217-1.37-.754.48-1.096 1.301-1.096 2.26zM60.696 36.45h-1.438v-1.438h1.438v1.438zM42.686 46.927h-1.438v-1.438h1.438v1.438zM78.635 45.489v1.438h-1.438v-1.438h1.438zM42.686 66.442h-1.438v-1.438h1.438v1.438zM78.635 65.004v1.438h-1.438v-1.438h1.438zM60.696 75.48v1.439h-1.438V75.48h1.438z" fill="#fff"/><defs><filter id="hfilter0_d_1457_20756" x="0" y="0" width="120" height="120" filterUnits="userSpaceOnUse" color-interpolation-filters="sRGB"><feFlood flood-opacity="0" result="BackgroundImageFix"/><feColorMatrix in="SourceAlpha" values="0 0 0 0 0 0 0 0 0 0 0 0 0 0 0 0 0 0 127 0" result="hardAlpha"/><feOffset dy="4"/><feGaussianBlur stdDeviation="12.5"/><feComposite in2="hardAlpha" operator="out"/><feColorMatrix values="0 0 0 0 0.917647 0 0 0 0 0.364706 0 0 0 0 0.733333 0 0 0 0.25 0"/><feBlend in2="BackgroundImageFix" result="effect1_dropShadow_1457_20756"/><feBlend in="SourceGraphic" in2="effect1_dropShadow_1457_20756" result="shape"/></filter></defs></svg><view id="mouse" viewBox="52 81.56 35.09 52"/><svg width="35.09" height="52" fill="none" viewBox="-16.56 -16.56 58.13 86.13" x="52" y="81.56" xmlns="http://www.w3.org/2000/svg"><rect x="1" y="1" width="23" height="37" rx="11.5" stroke="#fff" stroke-width="2"/><rect x="11" y="10" width="3" height="7" rx="1.5" fill="#fff"/><path d="M17 47l-4.5 4L8 47" stroke="#fff" stroke-width="2" stroke-linecap="round"/></svg><view id="phone" viewBox="156 0 44 44"/><svg width="44" height="44" fill="none" viewBox="-10 -10 44 44" x="156" xmlns="http://www.w3.org/2000/svg"><path d="M15.123 16.327l1.615-1.615a1.578 1.578 0 011.687-.347l1.97.787a1.572 1.572 0 01.98 1.442V20.2a1.566 1.566 0 01-1.644 1.55C5.935 20.892 3.15 9.21 2.625 4.738A1.565 1.565 0 014.19 3h3.483a1.558 1.558 0 011.442.98l.786 1.97a1.557 1.557 0 01-.339 1.687L7.947 9.252s.93 6.296 7.176 7.075z" fill="#331A2F"/></svg><view id="spent" viewBox="87.09 81.56 51.35 52"/><svg width="51.35" height="52" fill="none" viewBox="-15.31 -15.31 78.63 79.63" x="87.09" y="81.56" xmlns="http://www.w3.org/2000/svg"><path d="M0 44.075v-19.95c.3-.975 1.05-1.5 1.875-1.95.3-.15.6-.3.9-.375.375-.075.45-.3.45-.6V7.1c0-3.375 2.4-5.85 5.625-5.85h33.375c1.575 0 2.55.975 2.55 2.625V10.925c2.25.75 3.225 2.025 3.225 4.35v23.25c0 .45 0 .9-.15 1.35-.45 1.8-2.025 3-4.05 3H23.25v.3c.075 1.125-.45 1.95-1.425 2.475-.825.45-1.725.825-2.55 1.05-2.4.675-4.95.9-7.425.9-2.925 0-5.85-.225-8.7-1.2C1.8 46.025.525 45.5 0 44.075zM46.425 22.85v-.525-7.2c0-1.725-.975-2.7-2.7-2.7H9c-1.5 0-2.85-.45-3.975-1.425-.075-.075-.15-.075-.225-.15v10.2c.15 0 .3 0 .45-.075 3.975-.825 7.95-.825 12-.15 1.575.225 3.15.675 4.575 1.5.9.675 1.425 1.425 1.425 2.625-.075 5.25 0 10.425 0 15.675v.6h20.625c1.575 0 2.625-.975 2.625-2.625v-7.275-.45h-3.75c-.6 0-1.2-.075-1.8-.3-1.725-.675-2.7-2.625-2.325-4.425.375-1.875 1.95-3.225 3.825-3.225 1.2-.075 2.55-.075 3.975-.075zM43.2 7.625H7.575c-.825 0-1.2-.3-1.2-.825 0-.525.375-.825 1.2-.825H43.2V3.95c0-.9-.225-1.125-1.125-1.125h-33c-.375 0-.75 0-1.05.075C6 3.35 4.65 5.225 4.8 7.1c.225 2.1 1.875 3.675 3.975 3.675h34.05c.15 0 .225 0 .375-.075V7.625zm-31.575 14.4c-2.25 0-4.5.15-6.675.75-.975.3-1.95.675-2.85 1.125-.675.375-.675.75 0 1.125.525.3 1.05.525 1.575.75 1.725.6 3.45.825 5.25.975 3.15.225 6.3.15 9.45-.6.9-.225 1.8-.6 2.7-1.05.75-.375.75-.825 0-1.275-.45-.3-.975-.525-1.5-.675-2.625-.9-5.25-1.05-7.95-1.125zm-10.05 4.65c0 .675.075 1.35 0 2.025-.075.6.225 1.05.75 1.275 1.125.375 2.175.9 3.375 1.125 3.15.675 6.3.675 9.525.375a18.39 18.39 0 005.25-1.2c.825-.375 1.35-.825 1.2-1.875-.075-.525 0-1.125 0-1.65-6.525 2.325-13.8 2.325-20.1-.075zm0 9.6c0 .75.075 1.425 0 2.1 0 .6.225.975.675 1.125.825.375 1.65.75 2.55.975 4.2 1.05 8.475.975 12.75.225 1.2-.225 2.4-.525 3.45-1.2.225-.15.6-.375.6-.675.075-.825 0-1.725 0-2.625-3.225 1.5-6.6 1.8-9.975 1.8-3.45.075-6.825-.225-10.05-1.725zm0 4.8v2.175c0 .525.15.9.6 1.125.825.375 1.575.75 2.4.975 4.275 1.05 8.625 1.05 12.975.225 1.125-.225 2.25-.75 3.375-1.125.225-.075.6-.375.6-.6.075-.825 0-1.725 0-2.625-6.3 2.25-13.65 2.25-19.95-.15zm20.025-9.6c-3.225 1.5-6.6 1.8-9.975 1.8s-6.825-.3-9.975-1.8V33.8c0 .375.15.675.45.825.6.3 1.2.6 1.8.825 1.95.675 4.05.9 6.075.975 2.85.15 5.7 0 8.475-.75.9-.225 1.8-.675 2.625-1.05.225-.075.525-.45.525-.675v-2.475zm24.75-2.25v-4.8h-4.125c-1.2.075-2.175 1.125-2.175 2.325 0 1.2.9 2.325 2.1 2.4 1.35.15 2.775.075 4.2.075z" fill="#CF51CE"/><path d="M38.025 15.65H32.25c-.3 0-.6-.15-.825-.3-.15-.15-.225-.6-.075-.75.15-.224.45-.45.75-.45.6-.075 1.2 0 1.8 0h10.2c.45.075.825.375.825.825 0 .45-.375.75-.825.75h-4.2c-.675-.075-1.275-.075-1.875-.075zM27.974 15.651h-.825c-.45 0-.75-.3-.75-.75s.3-.825.75-.825h1.725c.45 0 .75.375.75.825 0 .45-.375.75-.825.75h-.825zM42.374 27.65a.832.832 0 01-.825-.825c0-.45.375-.825.825-.825.45 0 .75.375.75.75.075.525-.3.9-.75.9z" fill="#CF51CE"/></svg></svg>